<svg id="Layer_1" data-name="Layer 1" xmlns="http://www.w3.org/2000/svg" viewBox="0 0 1373.9 1378.03"><defs><style>.cls-1{fill:#fab256;}.cls-2{fill:#fffaf5;}.cls-3{fill:#fed6a3;}.cls-4{fill:#fdbf70;}.cls-5{fill:#2d200c;}</style></defs><title>zerotier</title><path class="cls-1" d="M1216.92,1377H149.73C90.67,1339.1,36.31,1296.83,11,1227.59V160.41C42.58,87.27,97.25,38.87,171.08,11h96c16.8,13.88,37,10.61,56.28,10.62q408.09.39,816.18.27c18.1,0,37.26,3.5,53.2-8.58L1206.14,11c85.57,28.53,139.8,88.39,171,171.24l-4.42,25.19c-10.94,13.29-6.42,30.17-6.43,45.43q-.52,441.18,0,882.36c0,15.18-4.46,32,6.27,45.24l4.41,36.5C1342.22,1288.86,1294.86,1348.22,1216.92,1377ZM689.58,182.1c-160,0-319.94-.4-479.91.57-17.94.11-47.18-13.08-48.08,23.25-.89,35.9,27.74,25.54,46.46,25.64,135.09.77,270.18,0,405.26.86,23.32.15,58.17-13.25,54.87,33.56-2.53,35.85,14.66,75.13-47.42,85.66-165.29,28-284.23,162.92-299.55,328.89-14.34,155.32,75.73,316.78,227.82,366,92.07,29.81,143.85,62.65,119.69,165.22-3.64,15.45,2.4,27.12,22.72,26.49,20.82-.66,21.78-13.55,21.75-28.69-.06-28.44,1.61-57-.37-85.29-2.14-30.58,4.43-44.58,39.92-51.92,187-38.7,305.08-181.92,304.63-362.84C1056.92,528.93,939,387.91,750.46,349.26c-62.31-12.78-31.18-56.49-36.35-87.33-6.58-39.29,25.66-29.55,46.35-29.64,136.86-.59,273.73.07,410.59-.77,18.28-.11,46.63,11.39,45.74-25.65-.9-37.6-30-23-47.3-23.12C1009.53,181.65,849.55,182.1,689.58,182.1Z" transform="translate(-3.43 -5.34)"/><path class="cls-2" d="M1376.67,181.42c-31.25-82.58-85.4-142.26-170.75-170.75,49.8,0,99.65,1.13,149.39-.58,18.61-.65,22.59,3.34,22,22C1375.54,81.78,1376.67,131.62,1376.67,181.42Z" transform="translate(-3.43 -5.34)"/><path class="cls-3" d="M1377,1184.58c-16.25-13.8-10.66-32.77-10.68-49.72q-.52-441.19,0-882.37c0-17-5.57-35.92,10.68-49.72Z" transform="translate(-3.43 -5.34)"/><path class="cls-4" d="M1195.25,11c-16.47,14.81-36.83,10.88-56,10.89q-408.09.16-816.18-.27c-19.29,0-39.48,3.26-56.27-10.62Z" transform="translate(-3.43 -5.34)"/><path class="cls-2" d="M1216.59,1376.67c77.94-28.78,125.3-88.14,160.08-160.08,0,46.25-1.19,92.54.59,138.72.71,18.62-3.33,22.66-22,22C1309.13,1375.48,1262.84,1376.67,1216.59,1376.67Z" transform="translate(-3.43 -5.34)"/><path class="cls-2" d="M170.75,10.67C96.92,38.54,42.25,86.94,10.67,160.08c0-49-19.27-119.52,5.05-141.22C43.9-6.28,110.4,11.51,160.26,10.68,163.76,10.62,167.25,10.67,170.75,10.67Z" transform="translate(-3.43 -5.34)"/><path class="cls-2" d="M11,1227.27c25.31,69.24,79.67,111.5,138.73,149.4-46.24,0-110.53,18-133.65-5.07S11,1284.18,11,1237.94Z" transform="translate(-3.43 -5.34)"/><path class="cls-5" d="M689.58,182.1c160,0,319.95-.45,479.91.65,17.32.11,46.4-14.48,47.3,23.12.89,37-27.46,25.54-45.74,25.65-136.86.84-273.73.18-410.59.77-20.69.09-52.93-9.65-46.35,29.64,5.17,30.84-26,74.55,36.35,87.33C939,387.91,1056.92,528.93,1057.37,709.54c.45,180.92-117.61,324.14-304.63,362.84-35.49,7.34-42.06,21.34-39.92,51.92,2,28.3.31,56.85.37,85.29,0,15.14-.93,28-21.75,28.69-20.32.63-26.36-11-22.72-26.49,24.16-102.57-27.62-135.41-119.69-165.22-152.09-49.26-242.16-210.72-227.82-366,15.32-166,134.26-300.85,299.55-328.89,62.08-10.53,44.89-49.81,47.42-85.66,3.3-46.81-31.55-33.41-54.87-33.56-135.08-.89-270.17-.09-405.26-.86-18.72-.1-47.35,10.26-46.46-25.64.9-36.33,30.14-23.14,48.08-23.25C369.64,181.7,529.61,182.1,689.58,182.1ZM668.22,713.83c0-90.52-3.09-181.18,1.18-271.5,2.48-52.45-21.11-54.78-60-45.63-138.5,32.54-247.13,173.88-244,317.91,3.27,148.68,111.45,281,251.45,311.2,37.93,8.18,54.16,4.92,52.4-40.47C665.75,895,668.22,804.34,668.22,713.83Zm45,1.34c0,94,.53,188-.34,282-.24,26.5,3.72,37.73,35.57,31.11,83.77-17.42,150.78-58.52,201.69-127,134.13-180.53,41.35-446-176-503.09-55.42-14.55-60.82-10.65-60.92,45.58Q713.07,579.48,713.27,715.17Z" transform="translate(-3.43 -5.34)"/><path class="cls-1" d="M668.22,713.83c0,90.51-2.47,181.13,1,271.51,1.76,45.39-14.47,48.65-52.4,40.47-140-30.21-248.18-162.52-251.45-311.2-3.18-144,105.45-285.37,244-317.91,38.94-9.15,62.53-6.82,60,45.63C665.13,532.65,668.22,623.31,668.22,713.83Z" transform="translate(-3.43 -5.34)"/><path class="cls-1" d="M713.26,715.17q0-135.69,0-271.4c.1-56.23,5.5-60.13,60.92-45.58,217.33,57.05,310.11,322.56,176,503.09-50.91,68.52-117.92,109.62-201.69,127-31.85,6.62-35.81-4.61-35.57-31.11C713.8,903.21,713.27,809.19,713.26,715.17Z" transform="translate(-3.43 -5.34)"/></svg>